<svg width="39" height="24" viewBox="0 0 39 24" fill="none" xmlns="http://www.w3.org/2000/svg">
<path d="M21.8636 24V0H39V5.25012H28.4816V9.37496H37.9545V14.6251H28.4816V24H21.8636Z" fill="url(#paint0_linear_68_18)"/>
<path d="M21.229 24H28.3636L20.325 0H11.2886L3.25 24H10.3847L11.7908 19.4066H19.8195L21.229 24ZM13.2874 14.5327L15.7148 6.60966H15.9056L18.3329 14.5327H13.2874Z" fill="url(#paint1_linear_68_18)"/>
<path d="M3.32943 6.55276C2.40838 6.55276 1.62128 6.23425 0.968171 5.5939C0.315063 4.95355 -0.00982173 4.17386 0.000226095 3.25482C-0.00647245 2.35899 0.315063 1.59257 0.968171 0.955544C1.62128 0.318516 2.40838 0 3.32943 0C4.20024 0 4.97393 0.318516 5.64379 0.955544C6.31364 1.59257 6.65189 2.35899 6.66194 3.25482C6.65524 3.86862 6.49449 4.42271 6.17966 4.92039C5.86483 5.41806 5.45956 5.81619 4.96052 6.11148C4.45813 6.40346 3.91555 6.55276 3.32943 6.55276Z" fill="url(#paint2_linear_68_18)"/>
<defs>
<linearGradient id="paint0_linear_68_18" x1="-50.9579" y1="12.0015" x2="129.101" y2="12.0015" gradientUnits="userSpaceOnUse">
<stop stop-color="#F9789D"/>
<stop offset="0.2598" stop-color="#F478B3"/>
<stop offset="0.6117" stop-color="#8C64FB"/>
<stop offset="0.6229" stop-color="#9560FC"/>
<stop offset="0.7905" stop-color="#6277F9"/>
<stop offset="1" stop-color="#3EE8FF"/>
</linearGradient>
<linearGradient id="paint1_linear_68_18" x1="3.25301" y1="12.0015" x2="183.16" y2="12.0015" gradientUnits="userSpaceOnUse">
<stop stop-color="#F9789D"/>
<stop offset="0.2598" stop-color="#F478B3"/>
<stop offset="0.6117" stop-color="#8C64FB"/>
<stop offset="0.6229" stop-color="#9560FC"/>
<stop offset="0.7905" stop-color="#6277F9"/>
<stop offset="1" stop-color="#3EE8FF"/>
</linearGradient>
<linearGradient id="paint2_linear_68_18" x1="-173.315" y1="3.27711" x2="6.65829" y2="3.27711" gradientUnits="userSpaceOnUse">
<stop stop-color="#F9789D"/>
<stop offset="0.2598" stop-color="#F478B3"/>
<stop offset="0.6117" stop-color="#8C64FB"/>
<stop offset="0.6229" stop-color="#9560FC"/>
<stop offset="0.7905" stop-color="#6277F9"/>
<stop offset="1" stop-color="#3EE8FF"/>
</linearGradient>
</defs>
</svg>
