<svg width="610" height="136" viewBox="0 0 610 136" fill="none" xmlns="http://www.w3.org/2000/svg">
<path d="M60.9779 83.5577H85.1349L57.9171 1.11096H27.3213L0.103516 83.5577H24.2606L29.0217 67.778H56.2055L60.9779 83.5577ZM34.0889 51.0347L42.3075 23.817H42.9537L51.1723 51.0347H34.0889Z" fill="url(#paint0_linear_9_23)"/>
<path d="M137.621 83.5577H161.936L145.193 52.8145C149.467 50.7627 152.834 47.8607 155.282 44.0745C157.901 40.0162 159.204 35.0396 159.204 29.1449C159.204 23.2955 157.935 18.2737 155.384 14.0907C152.834 9.90772 149.263 6.69964 144.672 4.46645C140.081 2.24459 134.73 1.12231 128.609 1.12231H93.0248V83.5691H115.402V56.3513H123.145L137.621 83.5577ZM115.402 18.9879H123.292C125.922 18.9879 128.166 19.3393 130.037 20.0535C131.907 20.7676 133.336 21.8672 134.345 23.3522C135.353 24.8372 135.852 26.7644 135.852 29.1336C135.852 31.4688 135.353 33.3619 134.345 34.8129C133.336 36.2639 131.907 37.3182 130.037 37.9757C128.166 38.6332 125.922 38.9619 123.292 38.9619H115.402V18.9879Z" fill="url(#paint1_linear_9_23)"/>
<path d="M166.448 19.1579V1.12231H238.103V19.1579H213.3V83.5691H191.24V19.1579H166.448Z" fill="url(#paint2_linear_9_23)"/>
<path d="M246.469 83.5577V1.11096H304.441V19.1466H268.858V33.3166H300.904V51.3521H268.858V83.5577H246.469Z" fill="url(#paint3_linear_9_23)"/>
<path d="M392.522 42.34C392.522 51.5221 390.742 59.2533 387.171 65.5448C383.601 71.8363 378.783 76.5974 372.718 79.8395C366.653 83.0702 359.886 84.6913 352.427 84.6913C344.911 84.6913 338.132 83.0589 332.078 79.8054C326.025 76.5407 321.219 71.7683 317.67 65.4768C314.111 59.1853 312.331 51.4768 312.331 42.3513C312.331 33.1691 314.111 25.438 317.67 19.1465C321.23 12.855 326.025 8.09387 332.078 4.85177C338.132 1.62101 344.911 0 352.427 0C359.886 0 366.653 1.62101 372.718 4.85177C378.783 8.08254 383.601 12.855 387.171 19.1465C390.731 25.4267 392.522 33.1578 392.522 42.34ZM369.499 42.34C369.499 37.3975 368.852 33.2372 367.549 29.8364C366.245 26.4469 364.329 23.8623 361.79 22.1052C359.251 20.3481 356.133 19.4639 352.427 19.4639C348.72 19.4639 345.602 20.3481 343.063 22.1052C340.524 23.8623 338.608 26.4356 337.304 29.8364C336.001 33.2372 335.355 37.3975 335.355 42.34C335.355 47.2825 336.001 51.4428 337.304 54.8436C338.608 58.2444 340.524 60.8177 343.063 62.5748C345.602 64.3318 348.72 65.216 352.427 65.216C356.133 65.216 359.251 64.3318 361.79 62.5748C364.329 60.8177 366.245 58.2444 367.549 54.8436C368.841 51.4428 369.499 47.2825 369.499 42.34Z" fill="url(#paint4_linear_9_23)"/>
<path d="M402.826 83.5577V1.11096H425.204V65.5222H458.532V83.5577H402.826Z" fill="url(#paint5_linear_9_23)"/>
<path d="M489.932 1.12231V83.5691H467.555V1.12231H489.932Z" fill="url(#paint6_linear_9_23)"/>
<path d="M580.428 42.34C580.428 51.5221 578.648 59.2533 575.077 65.5448C571.506 71.8363 566.689 76.5974 560.624 79.8395C554.559 83.0702 547.791 84.6913 540.332 84.6913C532.816 84.6913 526.037 83.0589 519.984 79.8054C513.931 76.5407 509.124 71.7683 505.576 65.4768C502.017 59.1853 500.237 51.4768 500.237 42.3513C500.237 33.1691 502.017 25.438 505.576 19.1465C509.136 12.855 513.931 8.09387 519.984 4.85177C526.037 1.62101 532.816 0 540.332 0C547.791 0 554.559 1.62101 560.624 4.85177C566.689 8.08254 571.506 12.855 575.077 19.1465C578.648 25.4267 580.428 33.1578 580.428 42.34ZM557.404 42.34C557.404 37.3975 556.758 33.2372 555.454 29.8364C554.151 26.4469 552.235 23.8623 549.696 22.1052C547.157 20.3481 544.039 19.4639 540.332 19.4639C536.625 19.4639 533.508 20.3481 530.969 22.1052C528.429 23.8623 526.514 26.4356 525.21 29.8364C523.906 33.2372 523.26 37.3975 523.26 42.34C523.26 47.2825 523.906 51.4428 525.21 54.8436C526.514 58.2444 528.429 60.8177 530.969 62.5748C533.508 64.3318 536.625 65.216 540.332 65.216C544.039 65.216 547.157 64.3318 549.696 62.5748C552.235 60.8177 554.151 58.2444 555.454 54.8436C556.758 51.4428 557.404 47.2825 557.404 42.34Z" fill="url(#paint7_linear_9_23)"/>
<path d="M597.987 84.85C594.87 84.85 592.206 83.7618 589.995 81.5739C587.785 79.3861 586.685 76.7221 586.719 73.582C586.696 70.5213 587.785 67.9027 589.995 65.7262C592.206 63.5497 594.87 62.4614 597.987 62.4614C600.934 62.4614 603.553 63.5497 605.82 65.7262C608.088 67.9027 609.232 70.5213 609.266 73.582C609.244 75.6792 608.7 77.5723 607.634 79.2727C606.568 80.9731 605.197 82.3334 603.508 83.3423C601.807 84.3399 599.971 84.85 597.987 84.85Z" fill="url(#paint8_linear_9_23)"/>
<path d="M3.125 112.848L3.30256 111.818H16.0423L15.8647 112.848H10.0497L7.20881 130H6.09908L8.93999 112.848H3.125ZM17.0676 130L20.0861 111.818H25.688C26.8362 111.818 27.7862 112.043 28.5378 112.493C29.2954 112.937 29.8281 113.558 30.1358 114.357C30.4495 115.156 30.5205 116.083 30.3489 117.136C30.1713 118.178 29.7955 119.095 29.2214 119.888C28.6473 120.675 27.9105 121.291 27.0108 121.735C26.1171 122.179 25.0962 122.401 23.948 122.401H18.9231L19.0918 121.362H24.09C25.0192 121.362 25.8449 121.187 26.5669 120.838C27.2949 120.489 27.8868 119.998 28.3425 119.364C28.8042 118.731 29.106 117.988 29.248 117.136C29.3901 116.266 29.3368 115.511 29.0882 114.872C28.8397 114.227 28.4106 113.73 27.801 113.381C27.1913 113.026 26.419 112.848 25.4838 112.848H21.0183L18.1774 130H17.0676ZM25.91 121.761L29.0083 130H27.7566L24.676 121.761H25.91ZM48.5973 120.953C48.2895 122.824 47.6977 124.457 46.8217 125.854C45.9458 127.245 44.8686 128.325 43.5902 129.094C42.3177 129.864 40.9298 130.249 39.4265 130.249C37.8877 130.249 36.6004 129.858 35.5646 129.077C34.5348 128.295 33.8098 127.201 33.3896 125.792C32.9753 124.383 32.919 122.741 33.2209 120.865C33.5405 118.994 34.1383 117.364 35.0142 115.973C35.8961 114.576 36.9762 113.493 38.2546 112.724C39.533 111.954 40.9268 111.57 42.4361 111.57C43.9453 111.57 45.2178 111.96 46.2536 112.741C47.2893 113.517 48.0173 114.609 48.4375 116.017C48.8636 117.42 48.9169 119.065 48.5973 120.953ZM47.5231 120.865C47.8072 119.172 47.7746 117.71 47.4254 116.479C47.0822 115.248 46.4785 114.301 45.6143 113.638C44.7562 112.969 43.6908 112.635 42.4183 112.635C41.1162 112.635 39.9029 112.975 38.7784 113.656C37.6539 114.337 36.698 115.301 35.9109 116.55C35.1296 117.793 34.594 119.261 34.304 120.953C34.0199 122.646 34.0495 124.108 34.3928 125.339C34.736 126.564 35.3397 127.511 36.2038 128.18C37.0679 128.849 38.1422 129.183 39.4265 129.183C40.7404 129.183 41.9596 128.843 43.0842 128.162C44.2146 127.476 45.1705 126.511 45.9517 125.268C46.733 124.019 47.2567 122.551 47.5231 120.865ZM52.3193 112.848L52.4969 111.818H65.2366L65.059 112.848H59.2441L56.4031 130H55.2934L58.1343 112.848H52.3193ZM67.8955 112.848L68.0731 111.818H80.8128L80.6352 112.848H74.8202L71.9793 130H70.8696L73.7105 112.848H67.8955ZM85.9664 111.818L82.9479 130H81.8382L84.8566 111.818H85.9664ZM105.078 111.818H106.188L104.004 125.073C103.803 126.28 103.436 127.266 102.903 128.029C102.37 128.787 101.725 129.346 100.968 129.707C100.21 130.068 99.3933 130.249 98.5174 130.249C97.6296 130.249 96.8572 130.083 96.2003 129.751C95.5492 129.414 95.0669 128.949 94.7532 128.358C94.4454 127.766 94.3507 127.082 94.4691 126.307H95.5522C95.4634 126.881 95.5374 127.387 95.7741 127.825C96.0109 128.257 96.3749 128.597 96.8661 128.846C97.3574 129.094 97.9374 129.219 98.6062 129.219C99.2691 129.219 99.8935 129.08 100.479 128.801C101.071 128.517 101.58 128.068 102.006 127.452C102.433 126.837 102.731 126.029 102.903 125.028L105.078 111.818ZM123.757 111.818H124.867L122.878 123.857C122.677 125.094 122.209 126.197 121.475 127.168C120.742 128.133 119.821 128.896 118.714 129.458C117.614 130.015 116.406 130.293 115.092 130.293C113.796 130.293 112.689 130.015 111.772 129.458C110.855 128.896 110.189 128.13 109.775 127.159C109.36 126.188 109.254 125.088 109.455 123.857L111.444 111.818H112.553L110.574 123.794C110.402 124.842 110.482 125.774 110.813 126.591C111.145 127.408 111.686 128.053 112.438 128.526C113.19 128.994 114.116 129.228 115.217 129.228C116.312 129.228 117.324 128.994 118.253 128.526C119.188 128.053 119.966 127.408 120.588 126.591C121.209 125.774 121.603 124.842 121.768 123.794L123.757 111.818ZM126.4 130H125.229L134.808 111.818H136.086L139.628 130H138.457L135.269 113.248H135.172L126.4 130ZM129.206 123.155H137.942L137.764 124.185H129.028L129.206 123.155ZM159.932 111.818L156.914 130H155.831L146.926 113.833H146.82L144.13 130H143.02L146.038 111.818H147.13L156.044 128.002H156.15L158.831 111.818H159.932ZM173.32 111.818L170.301 130H169.192L172.21 111.818H173.32ZM190.336 117.5C190.307 116.873 190.186 116.269 189.972 115.689C189.759 115.109 189.446 114.591 189.031 114.135C188.617 113.674 188.093 113.31 187.46 113.043C186.833 112.771 186.087 112.635 185.223 112.635C184.045 112.635 182.9 112.955 181.787 113.594C180.68 114.233 179.719 115.168 178.902 116.399C178.091 117.63 177.535 119.134 177.233 120.909C176.949 122.608 176.972 124.076 177.304 125.312C177.641 126.549 178.251 127.505 179.133 128.18C180.015 128.849 181.13 129.183 182.48 129.183C183.657 129.183 184.755 128.905 185.773 128.349C186.797 127.792 187.658 127.002 188.357 125.978C189.055 124.949 189.514 123.729 189.733 122.321L190.088 122.507H183.909L184.095 121.477H190.976L190.789 122.507C190.529 124.111 189.993 125.493 189.182 126.653C188.377 127.807 187.383 128.695 186.199 129.316C185.022 129.938 183.737 130.249 182.346 130.249C180.784 130.249 179.485 129.864 178.449 129.094C177.413 128.319 176.691 127.23 176.283 125.827C175.874 124.425 175.827 122.785 176.141 120.909C176.372 119.5 176.765 118.225 177.322 117.083C177.884 115.935 178.57 114.949 179.381 114.126C180.198 113.304 181.112 112.673 182.124 112.235C183.137 111.792 184.208 111.57 185.338 111.57C186.38 111.57 187.282 111.741 188.046 112.085C188.815 112.422 189.452 112.878 189.955 113.452C190.464 114.02 190.843 114.656 191.091 115.36C191.346 116.059 191.473 116.772 191.473 117.5H190.336ZM210.982 111.818L207.963 130H206.88L197.976 113.833H197.869L195.179 130H194.07L197.088 111.818H198.18L207.093 128.002H207.2L209.881 111.818H210.982ZM212.509 130H211.337L220.916 111.818H222.195L225.737 130H224.565L221.378 113.248H221.28L212.509 130ZM215.314 123.155H224.05L223.873 124.185H215.137L215.314 123.155ZM244.156 117.5H243.038C243.026 116.884 242.904 116.29 242.674 115.716C242.449 115.136 242.12 114.615 241.688 114.153C241.256 113.685 240.726 113.316 240.099 113.043C239.472 112.771 238.75 112.635 237.933 112.635C236.731 112.635 235.574 112.958 234.462 113.603C233.349 114.242 232.387 115.18 231.576 116.417C230.771 117.654 230.224 119.166 229.934 120.953C229.632 122.741 229.679 124.247 230.076 125.472C230.472 126.692 231.115 127.615 232.002 128.242C232.896 128.87 233.938 129.183 235.127 129.183C235.95 129.183 236.725 129.05 237.453 128.784C238.181 128.511 238.838 128.145 239.424 127.683C240.016 127.215 240.525 126.692 240.951 126.112C241.377 125.531 241.7 124.934 241.919 124.318H243.055C242.801 125.052 242.428 125.771 241.937 126.475C241.451 127.18 240.865 127.819 240.179 128.393C239.492 128.961 238.717 129.414 237.853 129.751C236.989 130.083 236.048 130.249 235.03 130.249C233.515 130.249 232.239 129.861 231.203 129.086C230.168 128.304 229.437 127.209 229.011 125.801C228.59 124.392 228.537 122.747 228.851 120.865C229.159 118.994 229.75 117.364 230.626 115.973C231.508 114.576 232.585 113.493 233.858 112.724C235.136 111.954 236.53 111.57 238.039 111.57C239.063 111.57 239.957 111.738 240.72 112.076C241.484 112.407 242.117 112.857 242.62 113.425C243.129 113.987 243.511 114.621 243.766 115.325C244.02 116.029 244.15 116.754 244.156 117.5ZM250.517 111.818L247.499 130H246.389L249.407 111.818H250.517ZM268.714 120.953C268.407 122.824 267.815 124.457 266.939 125.854C266.063 127.245 264.986 128.325 263.707 129.094C262.435 129.864 261.047 130.249 259.544 130.249C258.005 130.249 256.718 129.858 255.682 129.077C254.652 128.295 253.927 127.201 253.507 125.792C253.092 124.383 253.036 122.741 253.338 120.865C253.658 118.994 254.255 117.364 255.131 115.973C256.013 114.576 257.093 113.493 258.372 112.724C259.65 111.954 261.044 111.57 262.553 111.57C264.063 111.57 265.335 111.96 266.371 112.741C267.406 113.517 268.134 114.609 268.555 116.017C268.981 117.42 269.034 119.065 268.714 120.953ZM267.64 120.865C267.924 119.172 267.892 117.71 267.543 116.479C267.199 115.248 266.596 114.301 265.732 113.638C264.873 112.969 263.808 112.635 262.536 112.635C261.233 112.635 260.02 112.975 258.896 113.656C257.771 114.337 256.815 115.301 256.028 116.55C255.247 117.793 254.711 119.261 254.421 120.953C254.137 122.646 254.167 124.108 254.51 125.339C254.853 126.564 255.457 127.511 256.321 128.18C257.185 128.849 258.259 129.183 259.544 129.183C260.858 129.183 262.077 128.843 263.201 128.162C264.332 127.476 265.288 126.511 266.069 125.268C266.85 124.019 267.374 122.551 267.64 120.865ZM271.149 130.115C270.877 130.115 270.655 130.024 270.483 129.84C270.312 129.651 270.229 129.423 270.235 129.157C270.247 128.896 270.35 128.674 270.546 128.491C270.747 128.307 270.978 128.216 271.238 128.216C271.504 128.216 271.726 128.31 271.904 128.5C272.087 128.683 272.17 128.902 272.152 129.157C272.141 129.334 272.087 129.497 271.993 129.645C271.904 129.793 271.783 129.908 271.629 129.991C271.481 130.074 271.321 130.115 271.149 130.115ZM283.501 130L283.643 129.157L290.638 122.374C291.65 121.403 292.458 120.581 293.062 119.906C293.672 119.231 294.124 118.622 294.42 118.077C294.722 117.533 294.92 116.964 295.015 116.373C295.139 115.633 295.083 114.979 294.846 114.411C294.616 113.836 294.234 113.39 293.701 113.07C293.174 112.75 292.532 112.591 291.775 112.591C290.982 112.591 290.251 112.768 289.582 113.123C288.913 113.472 288.354 113.946 287.904 114.544C287.46 115.141 287.176 115.81 287.052 116.55H285.977C286.131 115.615 286.489 114.772 287.052 114.02C287.62 113.268 288.324 112.673 289.165 112.235C290.005 111.792 290.919 111.57 291.908 111.57C292.867 111.57 293.686 111.78 294.367 112.2C295.048 112.62 295.542 113.194 295.85 113.922C296.157 114.644 296.234 115.461 296.08 116.373C295.974 117.047 295.755 117.695 295.423 118.317C295.092 118.932 294.586 119.622 293.905 120.385C293.231 121.143 292.319 122.075 291.171 123.182L285.285 128.873L285.276 128.97H294.82L294.642 130H283.501ZM304.181 130.249C302.968 130.249 301.989 129.879 301.243 129.139C300.503 128.393 300.018 127.322 299.787 125.925C299.556 124.528 299.6 122.856 299.92 120.909C300.24 118.974 300.746 117.308 301.438 115.911C302.137 114.514 302.98 113.443 303.968 112.697C304.963 111.945 306.064 111.57 307.271 111.57C308.484 111.57 309.467 111.945 310.218 112.697C310.97 113.443 311.464 114.514 311.701 115.911C311.938 117.302 311.893 118.968 311.568 120.909C311.248 122.856 310.739 124.528 310.041 125.925C309.342 127.316 308.496 128.384 307.502 129.13C306.507 129.876 305.401 130.249 304.181 130.249ZM304.315 129.219C305.771 129.219 307.052 128.5 308.159 127.061C309.266 125.623 310.041 123.572 310.485 120.909C310.769 119.199 310.828 117.722 310.662 116.479C310.497 115.236 310.121 114.277 309.535 113.603C308.949 112.928 308.159 112.591 307.164 112.591C305.708 112.591 304.427 113.316 303.32 114.766C302.219 116.21 301.45 118.258 301.012 120.909C300.728 122.62 300.663 124.096 300.817 125.339C300.977 126.582 301.349 127.541 301.935 128.216C302.521 128.884 303.314 129.219 304.315 129.219ZM313.945 130L314.087 129.157L321.083 122.374C322.095 121.403 322.903 120.581 323.506 119.906C324.116 119.231 324.569 118.622 324.865 118.077C325.166 117.533 325.365 116.964 325.459 116.373C325.584 115.633 325.527 114.979 325.291 114.411C325.06 113.836 324.678 113.39 324.146 113.07C323.619 112.75 322.977 112.591 322.219 112.591C321.426 112.591 320.695 112.768 320.026 113.123C319.357 113.472 318.798 113.946 318.348 114.544C317.904 115.141 317.62 115.81 317.496 116.55H316.422C316.576 115.615 316.934 114.772 317.496 114.02C318.064 113.268 318.768 112.673 319.609 112.235C320.449 111.792 321.364 111.57 322.352 111.57C323.311 111.57 324.131 111.78 324.811 112.2C325.492 112.62 325.986 113.194 326.294 113.922C326.602 114.644 326.679 115.461 326.525 116.373C326.418 117.047 326.199 117.695 325.868 118.317C325.536 118.932 325.03 119.622 324.35 120.385C323.675 121.143 322.764 122.075 321.615 123.182L315.729 128.873L315.72 128.97H325.264L325.087 130H313.945ZM329.326 130L329.468 129.157L336.464 122.374C337.476 121.403 338.283 120.581 338.887 119.906C339.497 119.231 339.95 118.622 340.245 118.077C340.547 117.533 340.746 116.964 340.84 116.373C340.965 115.633 340.908 114.979 340.672 114.411C340.441 113.836 340.059 113.39 339.526 113.07C339 112.75 338.357 112.591 337.6 112.591C336.807 112.591 336.076 112.768 335.407 113.123C334.738 113.472 334.179 113.946 333.729 114.544C333.285 115.141 333.001 115.81 332.877 116.55H331.803C331.957 115.615 332.315 114.772 332.877 114.02C333.445 113.268 334.149 112.673 334.99 112.235C335.83 111.792 336.745 111.57 337.733 111.57C338.692 111.57 339.512 111.78 340.192 112.2C340.873 112.62 341.367 113.194 341.675 113.922C341.983 114.644 342.06 115.461 341.906 116.373C341.799 117.047 341.58 117.695 341.249 118.317C340.917 118.932 340.411 119.622 339.731 120.385C339.056 121.143 338.144 122.075 336.996 123.182L331.11 128.873L331.101 128.97H340.645L340.467 130H329.326Z" fill="white"/>
<defs>
<linearGradient id="paint0_linear_9_23" x1="0.113718" y1="42.3397" x2="609.254" y2="42.3397" gradientUnits="userSpaceOnUse">
<stop stop-color="#F9789D"/>
<stop offset="0.2598" stop-color="#F478B3"/>
<stop offset="0.6117" stop-color="#8C64FB"/>
<stop offset="0.6229" stop-color="#9560FC"/>
<stop offset="0.7905" stop-color="#6277F9"/>
<stop offset="1" stop-color="#3EE8FF"/>
</linearGradient>
<linearGradient id="paint1_linear_9_23" x1="0.113775" y1="42.3397" x2="609.254" y2="42.3397" gradientUnits="userSpaceOnUse">
<stop stop-color="#F9789D"/>
<stop offset="0.2598" stop-color="#F478B3"/>
<stop offset="0.6117" stop-color="#8C64FB"/>
<stop offset="0.6229" stop-color="#9560FC"/>
<stop offset="0.7905" stop-color="#6277F9"/>
<stop offset="1" stop-color="#3EE8FF"/>
</linearGradient>
<linearGradient id="paint2_linear_9_23" x1="0.11389" y1="42.3397" x2="609.254" y2="42.3397" gradientUnits="userSpaceOnUse">
<stop stop-color="#F9789D"/>
<stop offset="0.2598" stop-color="#F478B3"/>
<stop offset="0.6117" stop-color="#8C64FB"/>
<stop offset="0.6229" stop-color="#9560FC"/>
<stop offset="0.7905" stop-color="#6277F9"/>
<stop offset="1" stop-color="#3EE8FF"/>
</linearGradient>
<linearGradient id="paint3_linear_9_23" x1="0.113652" y1="42.3397" x2="609.254" y2="42.3397" gradientUnits="userSpaceOnUse">
<stop stop-color="#F9789D"/>
<stop offset="0.2598" stop-color="#F478B3"/>
<stop offset="0.6117" stop-color="#8C64FB"/>
<stop offset="0.6229" stop-color="#9560FC"/>
<stop offset="0.7905" stop-color="#6277F9"/>
<stop offset="1" stop-color="#3EE8FF"/>
</linearGradient>
<linearGradient id="paint4_linear_9_23" x1="0.113822" y1="42.3392" x2="609.254" y2="42.3392" gradientUnits="userSpaceOnUse">
<stop stop-color="#F9789D"/>
<stop offset="0.2598" stop-color="#F478B3"/>
<stop offset="0.6117" stop-color="#8C64FB"/>
<stop offset="0.6229" stop-color="#9560FC"/>
<stop offset="0.7905" stop-color="#6277F9"/>
<stop offset="1" stop-color="#3EE8FF"/>
</linearGradient>
<linearGradient id="paint5_linear_9_23" x1="0.113547" y1="42.3397" x2="609.254" y2="42.3397" gradientUnits="userSpaceOnUse">
<stop stop-color="#F9789D"/>
<stop offset="0.2598" stop-color="#F478B3"/>
<stop offset="0.6117" stop-color="#8C64FB"/>
<stop offset="0.6229" stop-color="#9560FC"/>
<stop offset="0.7905" stop-color="#6277F9"/>
<stop offset="1" stop-color="#3EE8FF"/>
</linearGradient>
<linearGradient id="paint6_linear_9_23" x1="0.113928" y1="42.3397" x2="609.254" y2="42.3397" gradientUnits="userSpaceOnUse">
<stop stop-color="#F9789D"/>
<stop offset="0.2598" stop-color="#F478B3"/>
<stop offset="0.6117" stop-color="#8C64FB"/>
<stop offset="0.6229" stop-color="#9560FC"/>
<stop offset="0.7905" stop-color="#6277F9"/>
<stop offset="1" stop-color="#3EE8FF"/>
</linearGradient>
<linearGradient id="paint7_linear_9_23" x1="0.11385" y1="42.3392" x2="609.254" y2="42.3392" gradientUnits="userSpaceOnUse">
<stop stop-color="#F9789D"/>
<stop offset="0.2598" stop-color="#F478B3"/>
<stop offset="0.6117" stop-color="#8C64FB"/>
<stop offset="0.6229" stop-color="#9560FC"/>
<stop offset="0.7905" stop-color="#6277F9"/>
<stop offset="1" stop-color="#3EE8FF"/>
</linearGradient>
<linearGradient id="paint8_linear_9_23" x1="0.113184" y1="73.6582" x2="609.254" y2="73.6582" gradientUnits="userSpaceOnUse">
<stop stop-color="#F9789D"/>
<stop offset="0.2598" stop-color="#F478B3"/>
<stop offset="0.6117" stop-color="#8C64FB"/>
<stop offset="0.6229" stop-color="#9560FC"/>
<stop offset="0.7905" stop-color="#6277F9"/>
<stop offset="1" stop-color="#3EE8FF"/>
</linearGradient>
</defs>
</svg>
